<?xml version="1.0" encoding="UTF-8"?>
<svg id="Layer_1" data-name="Layer 1" xmlns="http://www.w3.org/2000/svg" viewBox="0 0 239.8 51.66">
  <path d="M47.92,15.18c0-2.58,2.1-3.96,4.14-3.96s4.14,1.38,4.14,3.96-2.16,4.2-4.14,4.2-4.14-1.56-4.14-4.2ZM48.28,23.46h7.56l-.06,27.6h-7.5v-27.6Z" fill="#231f20"/>
  <path d="M64.6,43.08v-13.92h-3.6v-5.7h3.6v-8.46h7.5v8.46h5.88v5.7h-5.88v12.72c0,3.24,1.98,3.36,3.72,3.36h1.86v5.82h-4.98c-5.52,0-8.1-2.88-8.1-7.98Z" fill="#231f20"/>
  <path d="M82.66,31.56c0-11.58,8.1-19.98,19.68-19.98,6.9,0,12.42,3,15.78,7.86l-6.24,4.62c-1.86-2.58-5.28-4.74-9.54-4.74-7.14,0-11.94,5.16-11.94,12.24s4.8,12.24,11.94,12.24c4.26,0,7.68-2.46,9.54-4.92l6.24,4.8c-3.36,4.86-8.88,7.86-15.78,7.86-11.58,0-19.68-8.4-19.68-19.98Z" fill="#231f20"/>
  <path d="M123.28,23.46h7.5v4.98c2.34-3.78,6.06-5.34,9.72-5.4v7.02c-2.7.06-9.72.48-9.72,8.34v12.66h-7.5v-27.6Z" fill="#231f20"/>
  <path d="M143.08,37.26c0-8.22,5.4-14.34,13.74-14.34s13.26,6.12,13.26,14.34v2.04h-19.8c.72,3.72,3.42,5.94,6.84,5.94,3.66,0,5.58-1.68,6.54-2.94l5.1,3.72c-2.4,3.48-6.6,5.64-11.64,5.64-8.46,0-14.04-6.18-14.04-14.4ZM163.06,34.56c-.66-3.24-2.7-5.7-6.24-5.7s-5.7,2.22-6.42,5.7h12.66Z" fill="#231f20"/>
  <path d="M174.64,37.26c0-8.34,5.52-14.22,13.08-14.22,3.48,0,6.06,1.26,7.92,3.36v-14.34h7.5v39h-7.5v-2.88c-1.86,2.1-4.44,3.36-7.92,3.36-7.56,0-13.08-6.06-13.08-14.28ZM195.64,37.26c0-4.14-2.7-7.2-6.84-7.2s-6.9,3.06-6.9,7.2,2.76,7.2,6.9,7.2,6.84-3.06,6.84-7.2Z" fill="#231f20"/>
  <path d="M209.74,15.18c0-2.58,2.1-3.96,4.14-3.96s4.14,1.38,4.14,3.96-2.16,4.2-4.14,4.2-4.14-1.56-4.14-4.2ZM210.1,23.46h7.56l-.06,27.6h-7.5v-27.6Z" fill="#231f20"/>
  <path d="M226.42,43.08v-13.92h-3.6v-5.7h3.6v-8.46h7.5v8.46h5.88v5.7h-5.88v12.72c0,3.24,1.98,3.36,3.72,3.36h1.86v5.82h-4.98c-5.52,0-8.1-2.88-8.1-7.98Z" fill="#231f20"/>
  <path d="M37.71,25.11c-.42-.25-.45-.84-.06-1.14,2.66-2.07,4.33-5.19,4.33-9.6,0-9.27-7.59-14.38-16.13-14.38h-13.99C5.31,0,0,5.31,0,11.86v27.33c0,6.55,5.31,11.86,11.86,11.86h15.52c8.53,0,16.64-5.5,16.64-14.77,0-5.23-2.56-8.92-6.32-11.19Z" fill="#231f20"/>
  <path d="M29.64,25.09c-.33-.25-.4-.74-.1-1.03,2.14-2.07,3.49-5.21,3.49-9.68,0-9.27-5.98-14.38-12.69-14.38h-8.67C5.23,0,0,5.23,0,11.67v27.72c0,6.45,5.23,11.67,11.67,11.67h9.88c6.71,0,13.09-5.5,13.09-14.77,0-5.25-2.03-8.95-5-11.21Z" fill="#eeb01f"/>
  <g>
    <circle cx="14.25" cy="35.14" r="10.44" fill="#fff"/>
    <circle cx="17.31" cy="34.95" r="10.44" fill="#231f20"/>
  </g>
</svg>