<?xml version="1.0" encoding="UTF-8"?>
<svg id="Layer_1" data-name="Layer 1" xmlns="http://www.w3.org/2000/svg" viewBox="0 0 82.92 73.72">
  <circle cx="46.56" cy="36.86" r="35.11" fill="#eeb01f"/>
  <g>
    <path d="M46.31,73.72c-20.18,0-36.61-16.42-36.61-36.61S26.12.51,46.31.51s36.61,16.42,36.61,36.61-16.42,36.61-36.61,36.61ZM46.31,3.51C27.78,3.51,12.7,18.59,12.7,37.12s15.08,33.61,33.61,33.61,33.61-15.08,33.61-33.61S64.84,3.51,46.31,3.51Z"/>
    <g>
      <rect x="22.44" y="22.98" width="56.68" height="3"/>
      <rect x="27.54" y="35.74" width="54.89" height="3"/>
      <rect x="24.99" y="48.51" width="54.89" height="3"/>
      <rect x="34.95" y="61.28" width="35.23" height="3"/>
      <rect x="34.95" y="10.21" width="35.23" height="3"/>
    </g>
    <g>
      <circle cx="36.61" cy="36.61" r="35.11" fill="#ffe4ae"/>
      <path d="M36.61,73.21C16.42,73.21,0,56.79,0,36.61S16.42,0,36.61,0s36.61,16.42,36.61,36.61-16.42,36.61-36.61,36.61ZM36.61,3C18.08,3,3,18.08,3,36.61s15.08,33.61,33.61,33.61,33.61-15.08,33.61-33.61S55.14,3,36.61,3Z"/>
    </g>
    <path d="M51.54,34.65c-.42-.25-.45-.84-.06-1.14,2.66-2.07,4.33-5.19,4.33-9.6,0-9.27-7.59-14.38-16.13-14.38h-13.99c-6.55,0-11.86,5.31-11.86,11.86v27.33c0,6.55,5.31,11.86,11.86,11.86h15.52c8.53,0,16.64-5.5,16.64-14.77,0-5.23-2.56-8.92-6.32-11.19Z" fill="#231f20"/>
    <path d="M43.47,34.63c-.33-.25-.4-.74-.1-1.03,2.14-2.07,3.49-5.21,3.49-9.68,0-9.27-5.98-14.38-12.69-14.38h-8.67c-6.45,0-11.67,5.23-11.67,11.67v27.72c0,6.45,5.23,11.67,11.67,11.67h9.88c6.71,0,13.09-5.5,13.09-14.77,0-5.25-2.03-8.95-5-11.21Z" fill="#eeb01f"/>
    <g>
      <circle cx="28.08" cy="44.68" r="10.44" fill="#fff"/>
      <circle cx="31.14" cy="44.49" r="10.44" fill="#231f20"/>
    </g>
  </g>
</svg>