<svg width="136" height="64" viewBox="0 0 136 64" fill="none" xmlns="http://www.w3.org/2000/svg">
    <path fill-rule="evenodd" clip-rule="evenodd"
        d="M62.762 21.2682L54.7168 20V44.1509H62.762V21.2682ZM101.411 32.0802C101.411 37.5457 98.5768 41.0196 95.3406 42.6329L95.3525 42.621C93.8105 43.3919 92.3066 43.7607 91.1787 43.9487C90.61 44.0439 90.1341 44.0915 89.7795 44.1153C89.613 44.139 89.4583 44.139 89.3536 44.139H69.2225V20H89.7343C90.0889 20.0238 90.5767 20.0976 91.1454 20.1904C92.2828 20.3736 93.8153 20.7329 95.3667 21.5181C98.641 23.1741 101.413 26.403 101.413 32.0802H101.411ZM77.2821 40.0941V40.1179L77.2702 40.0941H77.2821ZM85.6415 40.0941H77.2821V24.0307H85.701C85.8675 24.0307 86.1293 24.064 86.46 24.114C87.1239 24.2139 87.9782 24.4304 88.8301 24.8611C90.3506 25.6273 92.3637 27.695 92.3637 32.0683C92.3637 36.1347 90.3958 38.4713 88.842 39.2399C87.9782 39.6681 87.0978 39.8847 86.4244 39.9989C86.0912 40.056 85.8199 40.0822 85.6415 40.0941ZM131.136 44.1509H107.85V20L115.9 21.2682V40.1298H132L131.134 44.1486L131.136 44.1509Z"
        fill="#161616" />
    <path
        d="M42.0463 20.1304C41.5602 20.2845 41.1216 20.5572 40.8014 20.9485L30.1665 36.0888V21.2686L23.8472 20.166C23.4085 20.332 23.0172 20.5928 22.7327 20.9485L12.0503 36.1006V21.2686L4 20V44.1509H12.0622L22.1162 29.805V44.1509H30.1428L40.1968 30.0659V44.1509H48.2471V21.2686L42.0463 20.1304Z"
        fill="#161616" />
</svg>